<svg width="145" height="64" viewBox="0 0 145 64" fill="none" xmlns="http://www.w3.org/2000/svg"><path fill-rule="evenodd" clip-rule="evenodd" d="M140.532 37.87c-.406.67-.863 1.393-1.32 2.218-.457.774-.914 1.599-1.421 2.373a27.778 27.778 0 01-1.523 2.218c-.508.67-.965 1.186-1.473 1.598-.457.413-.964.62-1.371.62-.253 0-.507-.155-.66-.362-.203-.206-.304-.464-.406-.722-.101-.258-.101-.464-.101-.567 0-.516.203-1.135.507-1.857.305-.722.762-1.496 1.27-2.321.507-.825 1.066-1.599 1.624-2.424a96.42 96.42 0 001.523-2.167c.153-.154.407-.309.711-.36.254-.104.559-.104.914-.104.305 0 .508.052.66.155.152.103.305.258.508.516.101.412.304.722.558 1.186zm0-6.086a57.15 57.15 0 01-1.726.773c-.609.258-1.218.465-1.777.722-.558.258-1.117.568-1.574.877-1.32.98-2.437 2.218-3.452 3.61-1.016 1.394-1.777 2.94-2.386 4.591-.559 1.651-.864 3.301-.864 5.004 0 .722.153 1.392.407 2.011.254.568.66 1.032 1.167 1.393.508.36 1.117.516 1.777.516.61 0 1.168-.104 1.727-.31.558-.206 1.066-.464 1.573-.722a17.07 17.07 0 001.168-.722c.305-.206.559-.31.66-.31.254 0 .457.104.508.361.051.258.101.568.152.98 0 .413.102.877.254 1.393.152.516.457 1.083.965 1.65.304.413.609.723.914.98.304.258.609.362.913.362.407 0 .762-.155 1.016-.516a3.54 3.54 0 00.66-1.238c.152-.516.304-1.135.355-1.754.102-.619.152-1.238.254-1.908.254-2.012.508-4.075.762-6.138.253-2.063.558-4.126.863-6.138.05-.206.05-.412.101-.67.051-.207.051-.413.051-.62 0-1.237-.355-2.166-1.066-2.888-.813-.67-1.929-1.134-3.402-1.29zm-9.037-4.384a6.942 6.942 0 01-.609-1.238 3.873 3.873 0 00-.559-1.032c-.203-.258-.558-.413-1.015-.413-.762 0-1.472.258-2.132.723-.66.464-1.27 1.083-1.879 1.805a86.547 86.547 0 00-1.675 2.27 96.88 96.88 0 00-1.523 2.166c-.356.412-.711.825-1.117 1.238-.407.412-.813.773-1.219 1.186-.101-.568-.254-1.186-.406-1.805a10.16 10.16 0 00-.609-1.754 5.52 5.52 0 00-.863-1.341 1.639 1.639 0 00-1.219-.516c-.711 0-1.371.258-1.828.774-.507.464-.913 1.134-1.218 1.96a17.462 17.462 0 00-.762 2.733c-.203.98-.304 2.012-.406 2.992-.101.98-.152 1.96-.254 2.785-.05.877-.101 1.6-.203 2.166-.254 1.909-.507 3.766-.761 5.674a110.048 110.048 0 00-.61 5.725c0 .31.102.62.254.929.153.31.356.67.559.98.203.31.406.619.558.928.508-.258.965-.567 1.371-.773a6.802 6.802 0 001.219-.98c.355-.413.71-1.032 1.066-1.857a83.071 83.071 0 001.421-3.766c.457-1.237.863-2.475 1.32-3.765a46.395 46.395 0 011.523-3.662c.305-.67.711-1.444 1.219-2.372.508-.877 1.015-1.857 1.574-2.786.558-.98 1.117-1.857 1.675-2.733.559-.826 1.066-1.548 1.473-2.064.457-.515.761-.773 1.015-.825.203 0 .406.103.609.31.153.206.356.464.559.722.203.258.355.516.609.722.203.206.457.31.711.31.304 0 .558-.155.761-.517.203-.309.406-.773.559-1.34.152-.568.304-1.135.457-1.806.05-.412.203-1.083.355-1.753zM94.077 45.504c0 1.96.204 3.61.61 5.003.406 1.393 1.015 2.424 1.726 3.146.761.722 1.624 1.083 2.64 1.135.965 0 1.828-.361 2.691-.98.863-.619 1.675-1.496 2.386-2.527.711-1.084 1.371-2.27 1.878-3.61.559-1.342.965-2.735 1.27-4.179.304-1.444.457-2.837.457-4.23 0-.876-.051-1.856-.153-2.888a13.654 13.654 0 00-.609-2.94c-.305-.928-.762-1.753-1.422-2.424-.253.258-.456.464-.66.567-.152.155-.304.31-.406.516-.101.206-.152.464-.152.825 0 .516.051 1.084.203 1.6.102.515.203 1.031.355 1.547.102.516.153.98.153 1.496 0 1.29-.153 2.63-.457 4.023-.305 1.392-.711 2.733-1.168 4.126a71.208 71.208 0 01-1.574 3.972c-.101.258-.304.464-.558.67a4.354 4.354 0 01-.965.568c-.355.206-.66.36-.965.567-.152-.31-.304-.67-.507-1.032-.203-.36-.356-.722-.508-1.083-.152-.36-.203-.722-.254-1.031 0-1.084.102-2.167.305-3.353.203-1.186.508-2.321.863-3.507a19.26 19.26 0 011.371-3.353c.507-1.083 1.167-2.012 1.827-2.837a.99.99 0 00.254-.464c.051-.206.102-.413.102-.619 0-.413-.152-.722-.356-.98-.203-.258-.507-.464-.812-.619a1.964 1.964 0 00-.914-.206c-.71 0-1.32.258-1.929.722a6.91 6.91 0 00-1.625 1.96c-.507.825-.914 1.702-1.32 2.682-.355.98-.71 1.96-.964 2.94s-.508 1.908-.66 2.734c0 .773-.102 1.495-.153 2.063zM80.522 50.3c.101.825.254 1.599.457 2.27.203.721.457 1.288.812 1.753.355.464.863.722 1.472.722.66 0 1.27-.258 1.879-.67.61-.413 1.168-.98 1.726-1.703.508-.67.965-1.444 1.37-2.27.407-.825.712-1.65.915-2.423a6.834 6.834 0 00.355-2.115c0-.155-.102-.361-.254-.568-.152-.206-.355-.36-.508-.515-.203-.155-.304-.207-.355-.207a2.922 2.922 0 01-1.015.207c-.305 0-.508-.103-.61-.258-.101-.155-.152-.361-.152-.67 0-.207.05-.413.102-.671.05-.258.101-.465.152-.67a439.81 439.81 0 012.894-16.351 2303.93 2303.93 0 013.148-16.35c0-.671-.051-1.29-.153-1.858a2.956 2.956 0 00-.66-1.392c-.304-.361-.761-.62-1.37-.67-.508 0-.965.205-1.32.618-.356.361-.66.877-.914 1.547-.254.62-.457 1.29-.61 2.064-.152.722-.304 1.444-.406 2.166-.101.722-.254 1.341-.355 1.908-.813 3.972-1.625 7.944-2.488 11.967a456.272 456.272 0 00-2.285 12.017c-.863 4.024-1.421 8.047-1.827 12.122zM65.595 24.614c-.152 0-.355-.051-.507-.051-.153-.052-.305-.052-.457-.052-.153 0-.356.103-.61.206-.254.155-.457.31-.66.465-.203.154-.406.258-.558.36a6.017 6.017 0 001.574 1.135c.558.258 1.066.413 1.574.568.507.154.863.36 1.218.567.305.206.457.567.457 1.032 0 .206 0 .464-.05.722-.051.258-.102.619-.204.928-.507 2.682-.914 5.158-1.32 7.376s-.761 4.333-1.117 6.241c-.355 1.96-.71 3.817-1.015 5.57-.356 1.754-.66 3.56-.965 5.313-.355 1.754-.66 3.61-1.015 5.468-.051.103-.051.206-.051.31v.309c0 .412.05.825.203 1.237.152.413.406.723.762.98.355.258.863.413 1.523.413.304 0 .609-.206 1.066-.516.406-.31.812-.722 1.218-1.238.407-.464.762-.98 1.067-1.444.304-.464.507-.877.558-1.134a52.51 52.51 0 00.66-3.147c.152-.877.254-1.599.356-2.27.101-.67.152-1.289.202-1.96.051-.67.153-1.392.254-2.269.153-.877.305-1.908.559-3.198a258.12 258.12 0 001.523-8.665c.457-2.888.965-5.828 1.422-8.768.152-.723.406-1.341.761-1.806.356-.464.914-.877 1.726-1.134a17.533 17.533 0 004.722-2.58c1.421-1.082 2.64-2.372 3.706-3.868.305-.464.508-.98.711-1.599l.457-1.856c-1.219 1.031-2.539 2.114-3.96 3.146-1.422 1.031-2.843 2.114-4.214 3.146-.203.103-.406.206-.66.258-.254.052-.457.103-.71.103a1.69 1.69 0 01-.864-.258c-.254-.154-.355-.464-.406-.825 0-.567.101-1.29.254-2.166a28.6 28.6 0 01.609-2.682c.254-.929.558-1.806.863-2.63.305-.826.61-1.497.863-2.013.305-.515.559-.773.762-.825.203 0 .406.155.558.413.152.258.305.567.508.877.152.36.355.619.558.877.203.257.508.412.813.412.863-.206 1.472-.67 1.929-1.444.457-.722.71-1.702.71-2.785 0-.98-.152-1.909-.456-2.734-.305-.825-.711-1.496-1.27-2.012-.558-.515-1.167-.722-1.827-.773-1.219 0-2.285.31-3.199.877-.914.567-1.726 1.34-2.437 2.32-.71.98-1.32 2.115-1.828 3.353a31.411 31.411 0 00-1.32 3.869c-.355 1.34-.71 2.63-.964 3.92a78.465 78.465 0 00-.762 3.559c-.152.773-.457 1.34-.812 1.753-.355.413-.863.568-1.523.568h-.356c-.355.103-.456.103-.609.051zM48.181 50.301c.102.825.254 1.599.457 2.27.203.721.457 1.288.812 1.753.356.464.863.722 1.473.722.66 0 1.269-.258 1.878-.67.61-.413 1.168-.98 1.726-1.703a13.98 13.98 0 001.371-2.27c.406-.825.71-1.65.914-2.423a6.834 6.834 0 00.355-2.115c0-.155-.101-.361-.254-.568-.152-.206-.355-.36-.507-.515-.203-.155-.305-.207-.356-.207a2.921 2.921 0 01-1.015.207c-.305 0-.508-.103-.61-.258-.1-.155-.151-.361-.151-.67 0-.207.05-.413.101-.671.05-.258.102-.465.152-.67a439.81 439.81 0 012.894-16.351 2303.93 2303.93 0 013.148-16.35c0-.671-.05-1.29-.152-1.858-.153-.567-.356-1.031-.66-1.392-.305-.361-.762-.62-1.371-.67-.508 0-.965.205-1.32.618-.356.361-.66.877-.914 1.547-.254.62-.457 1.29-.61 2.064a32.44 32.44 0 00-.405 2.166c-.153.722-.254 1.341-.356 1.908-.812 3.972-1.624 7.944-2.437 11.967a456.272 456.272 0 00-2.285 12.017c-.863 4.024-1.421 8.047-1.878 12.122zm-5.382-16.712c-.254.413-.558.877-.863 1.496-.304.567-.609 1.134-.964 1.65-.305.516-.61.98-.965 1.341-.305.361-.61.568-.863.568a.544.544 0 01-.355-.155c-.102-.103-.254-.258-.305-.361-.102-.155-.152-.258-.152-.361 0-.052 0-.052.05-.052l.051-.051c.152-.413.305-.929.508-1.548s.406-1.237.66-1.856a7.224 7.224 0 01.863-1.548c.305-.413.66-.619 1.015-.619.153 0 .254.103.407.258.152.155.304.361.456.62.153.154.305.412.457.618zM31.021 48.186c.05.825.152 1.702.304 2.63.153.929.406 1.806.762 2.58a4.373 4.373 0 001.726 2.01c.762.517 1.828.775 3.097.775.66 0 1.422-.155 2.183-.413a9.925 9.925 0 002.234-1.083 7.762 7.762 0 001.777-1.6c.457-.618.71-1.289.71-2.01 0-.362-.1-.62-.304-.774-.203-.155-.508-.258-.863-.258-.457 0-.914.103-1.37.206-.458.103-.864.258-1.32.361a3.92 3.92 0 01-1.32.206c-.762 0-1.27-.206-1.575-.567-.304-.361-.457-.774-.507-1.29-.051-.515-.051-.98-.051-1.444 0-.877.203-1.65.558-2.27a7.183 7.183 0 011.371-1.701c.559-.516 1.117-1.032 1.726-1.548a10.512 10.512 0 001.523-1.805c.356-.567.711-1.186 1.117-1.857.407-.67.813-1.392 1.219-2.115.406-.722.71-1.444.965-2.166.253-.722.406-1.34.406-2.011 0-.826-.203-1.548-.61-2.167-.355-.619-.863-1.031-1.523-1.34-.609-.31-1.32-.465-2.081-.465-1.117 0-2.183.361-3.097.98-.965.619-1.777 1.496-2.539 2.63-.761 1.084-1.421 2.322-1.98 3.714-.558 1.393-1.015 2.837-1.421 4.333a48.765 48.765 0 00-.863 4.436c-.102 1.444-.254 2.785-.254 4.023zM7.819 58.81c.507.516 1.066.928 1.624 1.186a4.272 4.272 0 001.777.413c1.016 0 2.082-.31 3.199-.877 1.066-.567 2.132-1.392 3.198-2.424 1.066-.98 2.082-2.166 3.097-3.456 1.016-1.29 1.93-2.682 2.843-4.126.864-1.444 1.676-2.889 2.387-4.384.71-1.444 1.32-2.837 1.777-4.178.152-.516.304-1.032.406-1.548a7.51 7.51 0 00.152-1.495 8.26 8.26 0 00-.61-3.147c-.405-1.031-.913-1.96-1.624-2.733a8.6 8.6 0 00-2.488-2.012c-.964-.516-1.98-.825-3.147-.98-.61 0-1.016-.103-1.32-.258-.305-.155-.407-.36-.407-.722 0-.413.254-1.032.66-1.805.407-.774.914-1.6 1.524-2.528.609-.928 1.218-1.856 1.827-2.733a30.337 30.337 0 001.523-2.425c.559-.98 1.117-1.908 1.625-2.94.508-.98.965-2.011 1.27-3.094.304-1.032.456-2.166.456-3.353v-.774c0-.154 0-.36.051-.515 0-.155.05-.361.05-.516 0-1.599-.304-2.889-.913-4.023-.61-1.083-1.422-1.909-2.488-2.476S21.983.011 20.562.011c-1.93 0-3.859.31-5.839.929-1.98.618-3.858 1.444-5.686 2.424a40.902 40.902 0 00-5.026 3.352C2.488 7.954 1.218 9.192.203 10.482c-.101.103-.152.258-.203.412v.516c0 .206 0 .464.05.722 0 .258.052.516.052.774.355-.155.71-.258.964-.31.254-.051.559-.154.863-.258.305-.154.711-.464 1.168-.876 1.066-1.032 2.234-2.064 3.605-3.044a33.258 33.258 0 014.214-2.785 26.936 26.936 0 014.518-2.011c1.523-.516 2.996-.774 4.417-.774 1.523 0 2.742.464 3.605 1.29.863.825 1.32 2.011 1.32 3.455 0 .361-.05.774-.102 1.29-.05.515-.152.98-.304 1.392-.153.464-.305.774-.508 1.032-1.675 2.992-3.402 5.983-5.077 8.923a1315.648 1315.648 0 01-5.179 8.923c-.304.464-.71.98-1.218 1.548-.508.515-1.015 1.031-1.574 1.392-.558.413-1.015.62-1.37.62-.356 0-.61-.104-.762-.362-.153-.206-.203-.516-.203-.928v-.155c0-.052 0-.103.05-.155.254-1.702.61-3.404.965-5.158.406-1.753.71-3.507 1.015-5.21a29.77 29.77 0 00.457-5.106c0-.515-.101-.928-.253-1.289-.153-.361-.508-.619-.965-.825-.457-.155-1.117-.258-1.93-.258-.71 0-1.269.206-1.726.67-.456.413-.863 1.032-1.117 1.754-.304.774-.507 1.6-.66 2.63-.71 3.87-1.37 7.79-2.03 11.657-.66 3.869-1.32 7.737-1.879 11.657-.152 1.032-.203 2.115-.203 3.147 0 .928.05 1.805.152 2.682s.203 1.753.305 2.579c.05.31.203.619.406.928.203.31.457.62.762.929.304.309.558.619.812.928.355-.413.71-.722 1.117-1.083.355-.361.66-.774.965-1.186.253-.465.457-1.032.609-1.703.203-1.392.508-2.785.863-4.126a12.242 12.242 0 011.675-3.714c.762-1.134 1.777-2.114 3.097-2.991l.559-.62a8.04 8.04 0 011.777-1.96 11.183 11.183 0 012.284-1.547c.813-.464 1.625-.773 2.437-1.031.813-.206 1.574-.361 2.336-.361.71 0 1.37.258 1.93.67.558.413 1.015.98 1.37 1.65.355.671.508 1.342.508 2.013 0 .257 0 .567-.051.825-.05.258-.102.567-.203.825a30.98 30.98 0 01-2.133 5.364 43.707 43.707 0 01-3.046 4.9 100.393 100.393 0 01-3.554 4.59c-.253.31-.507.568-.761.878-.254.31-.559.567-.863.773a1.77 1.77 0 01-.965.31c-.508 0-.965-.207-1.27-.516a3.678 3.678 0 01-.76-1.135c-.204-.412-.356-.773-.508-1.134-.153-.31-.356-.465-.508-.516-.356 0-.711.206-1.066.516-.356.36-.66.773-.914 1.289-.254.516-.356 1.083-.406 1.65 0 .413.05.877.203 1.393-.051.774.152 1.341.457 1.96z" fill="#292223"/></svg>