<svg width="60" height="60" viewBox="0 0 60 60" fill="none" xmlns="http://www.w3.org/2000/svg"><circle cx="26" cy="31" r="20" fill="#FFE2E8"/><path d="M16.842 42.32c-.247.159-.48.34-.696.541-1.276 1.189-1.95 3.047-2.003 5.523a.773.773 0 00.195.53.75.75 0 00.5.25c.033.003.218.017.506.017 1.104 0 3.725-.2 5.112-1.983.709-.912.982-2.072.821-3.46 1.814 1.072 2.958 2.07 3.607 2.734a59.999 59.999 0 01-1.64 5.505.777.777 0 00.206.826.753.753 0 00.544.196.746.746 0 00.522-.252.768.768 0 00.15-.257c1.905-5.454 2.696-9.963 2.956-13.43 1.453-1.046 2.884-1.71 4.294-1.993-.31.901-.547 2.11-.327 3.347.406 2.282 2.153 3.484 3.547 4.09a.744.744 0 00.925-.279c.928-1.414 1.258-2.839.982-4.235-.148-.747-.527-1.732-1.437-2.77.322.096.639.211.947.346 1.475 1.216 2.882 1.627 4.107 1.627a5.996 5.996 0 002.434-.537 8.103 8.103 0 002.731-2.032.769.769 0 00.165-.616.775.775 0 00-.351-.529c-3.547-2.203-5.94-1.791-7.321-1.058a4.91 4.91 0 00-1.718 1.514 9.441 9.441 0 00-1.454-.406c1.246-1.212 1.726-2.391 1.897-3.253.276-1.396-.054-2.821-.982-4.235a.743.743 0 00-.925-.28c-1.394.607-3.14 1.81-3.547 4.09-.244 1.371.073 2.705.428 3.627-1.419.227-2.852.787-4.299 1.683a32.55 32.55 0 00-.023-2.333c-.113-2.404-.504-4.4-.96-5.651 2.657-.242 4.593-1.27 5.768-3.066 1.258-1.924 1.582-4.63.964-8.042a24.492 24.492 0 00-1.213-4.33 6.95 6.95 0 00-2.043-4.774A6.736 6.736 0 0025.465 7a6.737 6.737 0 00-4.746 1.965 6.95 6.95 0 00-2.043 4.774 24.475 24.475 0 00-1.213 4.33c-.618 3.412-.294 6.118.964 8.042 1.307 2 3.56 3.048 6.697 3.118.296.626.967 2.587 1.08 6.106.072 2.217-.083 5.384-.928 9.41-.909-.811-2.287-1.853-4.257-2.904.12-.97.172-2.918-.97-4.586-1.023-1.495-2.728-2.387-5.067-2.65a.746.746 0 00-.523.138.767.767 0 00-.298.457c-.03.142-.739 3.502 1.08 5.806.436.549.981.997 1.6 1.313zm22.674-6.756c1.221-.416 2.755-.163 4.476.732a6.39 6.39 0 01-1.546.975c-1.533.664-3.052.47-4.524-.574a3.448 3.448 0 011.594-1.133h0zm-6.354-3.815c.274-.941.938-1.708 1.976-2.286.442.863.585 1.705.425 2.51-.151.761-.648 1.869-2.117 3.02-.301-.772-.631-2.05-.284-3.244h0zm.284 5.525c1.47 1.15 1.967 2.258 2.117 3.018.16.806.017 1.649-.424 2.511-1.04-.578-1.703-1.345-1.977-2.286-.347-1.194-.017-2.471.284-3.243h0zm-2.202-12.008c-.512.78-1.232 1.374-2.153 1.78-.41-2.953-1.614-4.977-2.79-6.3a6.749 6.749 0 003.172-1.281 6.893 6.893 0 002.162-2.684c.634 2.453 1.163 6.109-.391 8.485zM25.465 8.533a5.21 5.21 0 012.196.484c.69.32 1.303.786 1.8 1.368a5.388 5.388 0 011.075 2.004 5.44 5.44 0 01.158 2.277 5.398 5.398 0 00-1.772-3.288 5.243 5.243 0 00-3.457-1.312c-1 0-1.96.404-2.668 1.123a3.864 3.864 0 00-1.106 2.71c0 1.017.398 1.992 1.106 2.711a3.745 3.745 0 002.668 1.123c.6 0 1.177-.242 1.601-.674a2.319 2.319 0 00.663-1.626 2.32 2.32 0 00-.663-1.627c-.424-.43-1-.673-1.6-.673a.75.75 0 00-.535.224.773.773 0 000 1.085.749.749 0 00.534.224c.2 0 .392.081.534.225a.773.773 0 010 1.084.749.749 0 01-.534.225 2.25 2.25 0 01-1.601-.674 2.319 2.319 0 01-.663-1.627c0-.61.238-1.194.663-1.626.425-.431 1-.674 1.601-.674.984 0 1.93.39 2.635 1.088a3.862 3.862 0 011.14 2.647c.025 1-.336 1.97-1.004 2.704a3.75 3.75 0 01-2.577 1.223 5.243 5.243 0 01-3.93-1.567 5.41 5.41 0 01-1.547-3.794 5.41 5.41 0 011.547-3.795 5.242 5.242 0 013.736-1.572zm0 19.167c-2.777 0-4.722-.82-5.779-2.434-1.554-2.376-1.025-6.032-.391-8.485a6.92 6.92 0 001.884 2.466 6.776 6.776 0 002.76 1.375c1.253.947 3.223 3.02 3.688 6.878a10.97 10.97 0 01-2.162.2zm-6.191 18.544c-.628.81-1.734 1.147-2.551 1.287-.34.058-.684.094-1.029.108.144-1.645.638-2.87 1.472-3.647.809-.754 1.797-.938 2.447-.966.352 1.391.239 2.472-.34 3.218zM15.54 36.239c1.504.29 2.6.92 3.262 1.882.798 1.157.81 2.568.736 3.355-1.405-.108-2.451-.586-3.115-1.423-.943-1.19-.963-2.874-.883-3.814z" fill="#292223" stroke="#292223" stroke-width=".5"/></svg>