<svg width="60" height="60" viewBox="0 0 60 60" fill="none" xmlns="http://www.w3.org/2000/svg"><circle cx="27" cy="33" r="20" fill="#FFE2E8"/><path d="M53.078 21.266a8.285 8.285 0 00-3.503-2.584c.41-.85.625-1.778.625-2.745 0-3.04-2.427-5.526-5.452-5.638-1.16-3.362-4.956-4.665-7.847-3.388C36.837 6.838 35.314 5 32.585 5a5.793 5.793 0 00-4.115 1.698 7.392 7.392 0 00-2.157 5.76 1.023 1.023 0 00-1.072.587l-4.654 10.61a17.213 17.213 0 00-1.361 5.153l-.537 5.207c-.706-.946-1.686-1.33-2.648-1.279-.984.052-1.9.561-2.412 1.386a3.04 3.04 0 00.046 3.249l-2.065 1.213a17.341 17.341 0 00-3.542 2.755l-2.112 2.134a3.275 3.275 0 00-.796 3.323c1.282 3.956 3.986 6.645 8.027 8.026a3.297 3.297 0 003.395-.785l2.15-2.125a17.298 17.298 0 002.722-3.487l1.195-2.017c1.108.671 2.343.532 3.289-.129.837-.584 1.286-1.454 1.316-2.377.03-.885-.315-1.752-1.283-2.54 0 0 5.75-.609 5.967-.624 1.229-.084 1.091-2.062-.138-1.977-.046.003-6.487.67-6.487.67-.597.053-1.475-.034-2.26-.799l-1.633-1.627c-.714-.74-.866-1.52-.802-2.25l.592-5.744c.162-1.576.567-3.11 1.204-4.561l1.406-3.205c1.37 2.55 3.176 4.81 5.288 6.808 3.553 3.358 8.625 5.818 13.552 6.542l-2.847 1.24c-1.2.521-.4 2.342.8 1.82l6.31-2.748c4.457-.098 8.06-3.73 8.077-8.195a8.7 8.7 0 00-1.922-5.446zM24.868 43.04c.538.47.547 1.18-.126 1.649-.673.469-1.512-.093-1.57-.753l-.317-2.692c.628.587 1.307 1.18 2.012 1.796zm-9.561-7.845c.355-.574 1.239-.649 1.684-.107a47.004 47.004 0 001.77 2.046l-2.723-.377c-.72-.106-1.071-1.013-.732-1.562zm5.583 6.361l.39 3.25-1.543 2.609a15.31 15.31 0 01-2.41 3.087l-2.15 2.124a1.328 1.328 0 01-1.348.314c-3.463-1.173-5.678-3.382-6.77-6.755a1.3 1.3 0 01.318-1.319l2.112-2.134a15.354 15.354 0 013.135-2.438l2.752-1.618 3.182.437-6.76 3.972a.991.991 0 00-.352 1.36 1 1 0 001.365.35l5.898-3.465-3.479 5.876a.99.99 0 00.353 1.36c.455.265 1.085.13 1.365-.352l3.942-6.658zm16.8-25.816a5.757 5.757 0 00.246-4.78 4.6 4.6 0 00-.07-2.298c1.802-.689 4.023.087 4.882 2.002a4.486 4.486 0 00-2.71 4.11 3.62 3.62 0 003.623 3.608 2.964 2.964 0 002.966-2.954.995.995 0 00-.997-.994.995.995 0 00-.998.993.971.971 0 01-.971.968 1.627 1.627 0 01-1.629-1.621 2.501 2.501 0 012.504-2.493c2.023 0 3.67 1.64 3.67 3.655 0 2.883-2.686 4.71-5.288 4.852a5.779 5.779 0 00-2.927-1.039c-1.826-.247-3.047-2.225-2.3-4.01zm-7.81-7.639c1.228-1.265 3.7-1.672 5.41 0 1.03 1.008 1.021 2.672 0 3.69a1.723 1.723 0 01-2.426 0 1.031 1.031 0 010-1.461.99.99 0 000-1.405 1 1 0 00-1.41 0 3.014 3.014 0 000 4.27 3.727 3.727 0 004.867.33 3.769 3.769 0 01-1.083 2.228c-1.477 1.471-3.898 1.489-5.358 0-2.288-2.334-1.954-5.64 0-7.652zm-5.015 10.762l1.69-3.852c1.468 1.445 2.595 3.191 2.984 5.232a23.517 23.517 0 003.262 8.246 23.981 23.981 0 01-7.937-9.626zm6.633 1.011a11.231 11.231 0 00-.291-1.187c1.49.344 3.096.114 4.4-.705.178.845.754 1.827 1.339 2.372a5.831 5.831 0 00-1.49 1.078 7.332 7.332 0 00-2.08 4.03 21.536 21.536 0 01-1.878-5.588zM42.224 30.49a3.804 3.804 0 01-5.359 0 5.364 5.364 0 01-1.591-3.826c0-1.445.565-2.804 1.591-3.826 1.52-1.513 4.004-1.421 5.41 0a2.623 2.623 0 010 3.69 1.71 1.71 0 01-2.426 0 1.038 1.038 0 010-1.461.994.994 0 10-1.41-1.404 3.014 3.014 0 000 4.27c1.652 1.646 3.923 1.121 4.867.33a3.767 3.767 0 01-1.082 2.227zm9.032.5a6.31 6.31 0 01-4.545 1.934c-1.332 0-2.647-.107-3.94-.32.737-.462 1.52-1.365 1.831-1.988a3.045 3.045 0 004.11-.162.995.995 0 10-1.41-1.404 1.044 1.044 0 01-1.467 0c-.662-.656-.667-1.766 0-2.417.518-.505 1.604-.937 2.715-1.06 1.098-.124 2.076.065 2.492.479 1.427 1.421 1.498 3.453.214 4.939zm-2.928-7.392c-1.262.141-2.437.55-3.292 1.132v-.047c0-.752-.18-1.477-.52-2.126 1.397-.307 2.877-1.114 3.873-2.175 2.11.599 3.804 2.426 4.393 4.618-.996-1.256-2.712-1.596-4.454-1.401zm-11.23 14.937a.996.996 0 01-.997.994.996.996 0 01-.998-.994c0-.548.447-.993.998-.993.55 0 .998.445.998.993z" fill="#292223"/></svg>